<svg xmlns="http://www.w3.org/2000/svg" viewBox="0 0 128 128"><defs><style>.cls-1{fill:#3b4559}.cls-2{fill:#00a9ce}</style></defs><path d="M44.3 57.3l10.92-10.93-21.11-21.1-8.53 8.52a17 17 0 0 0-4.9 13.82C21.87 59 29.12 72.88 41.11 84.88S67 104.12 78.38 105.31a17 17 0 0 0 13.82-4.9l8.52-8.53-21.1-21.11-10.93 10.92a61.24 61.24 0 0 1-13.79-10.6A61.54 61.54 0 0 1 44.3 57.3z" class="cls-1"/><path d="M64.29 43.38v7.12a11.22 11.22 0 0 1 11.2 11.2h7.12a18.34 18.34 0 0 0-18.32-18.32z" class="cls-2"/><path d="M64.29 31.64v7.13A23 23 0 0 1 87.22 61.7h7.13a30.1 30.1 0 0 0-30.06-30.06z" class="cls-2"/><path d="M64.29 19.85V27A34.77 34.77 0 0 1 99 61.7h7.13a41.91 41.91 0 0 0-41.84-41.85z" class="cls-2"/></svg>