<svg xmlns="http://www.w3.org/2000/svg" viewBox="0 0 128 128"><defs><style>.cls-1{fill:#00a9ce}.cls-2{fill:#3b4559}</style></defs><circle cx="68.02" cy="51.89" r="8.51" class="cls-1" transform="rotate(-13.28 68.05275408 51.89060025)"/><path d="M68 22.54a36.85 36.85 0 1 0 36.85 36.85A36.85 36.85 0 0 0 68 22.54zm0 62.64c-5.85-5.88-18.27-19.66-18.27-33.29a18.29 18.29 0 0 1 36.58 0C86.31 65.52 73.9 79.3 68 85.18z" class="cls-1"/><path d="M68 14.2a45.2 45.2 0 1 0 45.2 45.19A45.24 45.24 0 0 0 68 14.2zm0 86.11a40.92 40.92 0 1 1 40.92-40.92A41 41 0 0 1 68 100.31zM30.83 91.54l-17.22 17.22 5 5 17.26-17.18a50 50 0 0 1-5.04-5.04z" class="cls-2"/></svg>