<svg xmlns="http://www.w3.org/2000/svg" viewBox="0 0 128 128"><defs><style>.cls-1{fill:#00a9ce}.cls-2{fill:#3b4559}</style></defs><path d="M55.26 114a27.89 27.89 0 1 1 27.88-27.94A27.92 27.92 0 0 1 55.26 114zm0-48.65A20.76 20.76 0 1 0 76 86.06 20.79 20.79 0 0 0 55.26 65.3z" class="cls-1"/><path d="M91.12 36a9.63 9.63 0 1 0-9.62-9.63A9.63 9.63 0 0 0 91.12 36zm-7.77.72L54.61 19 35.84 37.17l6.51 6.51 13.55-13 10.82 6.62-17.5 17.5a32.38 32.38 0 0 1 6-.58 31.68 31.68 0 0 1 19.15 6.42l10.55-10.57a8.57 8.57 0 0 0-1.57-13.37zm-5.93 26.45a32.11 32.11 0 0 1 6.63 9.21h9.43v28.34h9.21V63.17z" class="cls-2"/></svg>