<svg xmlns="http://www.w3.org/2000/svg" viewBox="0 0 128 128"><defs><style>.cls-1{fill:#00a9ce;}.cls-2{fill:#3b4559;}</style></defs><title>MassGen-Icons-Final-jp</title><g id="icons"><path class="cls-1" d="M64,114a50,50,0,1,1,50-50A50.06,50.06,0,0,1,64,114Zm0-95.72A45.72,45.72,0,1,0,109.72,64,45.77,45.77,0,0,0,64,18.28Z"/><path class="cls-2" d="M64,22.24A41.76,41.76,0,1,0,105.76,64,41.8,41.8,0,0,0,64,22.24ZM64,39.7a4.48,4.48,0,1,1-4.47,4.47A4.47,4.47,0,0,1,64,39.7Zm9.73,48.6H60.44V57.05H54.27v-4H67.56V84.3h6.17Z"/></g></svg>