<svg xmlns="http://www.w3.org/2000/svg" viewBox="0 0 128 128"><defs><style>.cls-1{fill:#00a9ce}.cls-2{fill:#3b4559}</style></defs><path d="M96 31.75a15.41 15.41 0 1 0 15.4 15.41A15.4 15.4 0 0 0 96 31.75zm0 20.14a4.74 4.74 0 1 1 4.74-4.73 4.73 4.73 0 0 1-4.8 4.73z" class="cls-1"/><path d="M96 66.56a20 20 0 0 1-3.57-.34v14.93a23.17 23.17 0 1 1-46.33 0v-2A26.93 26.93 0 0 0 69.39 52.5V20.12h-13v4.28h5.92v28.1a19.78 19.78 0 0 1-39.56 0V24.4h5.91v-4.28h-13V52.5a26.94 26.94 0 0 0 23.26 26.66v2a30.29 30.29 0 0 0 60.58 0V66.22a19.78 19.78 0 0 1-3.5.34z" class="cls-2"/></svg>