<svg xmlns="http://www.w3.org/2000/svg" viewBox="0 0 128 128"><defs><style>.cls-1{fill:#00a9ce}.cls-2{fill:#3b4559}</style></defs><path d="M49 83.58H27.78v-4h20a76.25 76.25 0 0 1-2.22-12.34H27.78v-4h17.55c-.07-1.36-.11-2.73-.11-4.12v-4H80.8V14.3H15.86v85.53h41.27A64.46 64.46 0 0 1 49 83.58zm-21.26-53h41.1v4H27.78zm0 16.35h41.1v4H27.78z" class="cls-1"/><path d="M49.22 59.12c0 27.45 13.06 46.41 31.78 57 18.71-10.57 31.77-29.53 31.77-57zm35.34 27.57v10.74h-7.13V86.69H66.68v-7.13h10.75V68.81h7.13v10.75h10.75v7.13z" class="cls-2"/></svg>