<svg xmlns="http://www.w3.org/2000/svg" viewBox="0 0 128 128"><defs><style>.cls-1{fill:#00a9ce}.cls-2{fill:#3b4559}</style></defs><path d="M67.56 81.77a7.73 7.73 0 0 0 .08-10.84A7.72 7.72 0 0 0 56.73 60a7.72 7.72 0 0 0-10.92 10.93 7.72 7.72 0 0 0 10.92 10.91 7.71 7.71 0 0 0 10.83-.07z" class="cls-1"/><path d="M108.14 84.75v21.7h4.37V19.29h-32v47.29l25.84 17zM98.7 24h9.41v9.32H98.7zm0 16.44h9.41v9.32H98.7zm-4.38 25.73h-9.41v-9.32h9.41zm0-16.45h-9.41V40.4h9.41zm0-16.44h-9.41V24h9.41zm4.38 23.57h9.41v9.32H98.7z" class="cls-2"/><path d="M71.5 106.45V89.86H81v16.59h23.14V86.9L80.5 71.36l-3.32-2.17L73 72a11.77 11.77 0 0 1-2.58 12.63 11.61 11.61 0 0 1-6.1 3.23v18.63zm16.32-16.59h9.5v9.32h-9.5zM17.9 106.45H25V89.86h9.51v16.59h11.7V86.84a11.6 11.6 0 0 1-3.17-2.25 11.78 11.78 0 0 1-2.12-13.66 11.8 11.8 0 0 1 2.12-13.67 11.63 11.63 0 0 1 8.28-3.43h.39v-4.12h3.7v-4.27H14.2v4.27h3.7zM25 56.92h9.51v9.32H25zm0 16.52h9.51v9.32H25zM53.16 106.45h7.13V87.87a11.61 11.61 0 0 1-3.56-1.15 11.75 11.75 0 0 1-3.57 1.15z" class="cls-2"/></svg>