<svg xmlns="http://www.w3.org/2000/svg" viewBox="0 0 128 128"><defs><style>.cls-1{fill:#00a9ce}.cls-2{fill:#3b4559}</style></defs><circle cx="88.3" cy="32.68" r="11.49" class="cls-1" transform="rotate(-13.28 88.30950507 32.69981102)"/><path d="M96.08 46.06a15.38 15.38 0 0 1-15.55 0 17.18 17.18 0 0 0-12.86 16.61h41.27a17.18 17.18 0 0 0-12.86-16.61z" class="cls-1"/><circle cx="42.5" cy="32.68" r="11.49" class="cls-2" transform="rotate(-45 42.49557067 32.67775829)"/><path d="M50.27 46.06a15.38 15.38 0 0 1-15.55 0 17.18 17.18 0 0 0-12.86 16.61h41.27a17.18 17.18 0 0 0-12.86-16.61z" class="cls-2"/><circle cx="42.5" cy="78.22" r="11.49" class="cls-2"/><path d="M50.27 91.6a15.38 15.38 0 0 1-15.55 0 17.18 17.18 0 0 0-12.86 16.61h41.27A17.18 17.18 0 0 0 50.27 91.6z" class="cls-2"/><circle cx="88.3" cy="78.22" r="11.49" class="cls-2" transform="rotate(-9.22 88.24828733 78.20298961)"/><path d="M96.08 91.6a15.38 15.38 0 0 1-15.55 0 17.18 17.18 0 0 0-12.86 16.61h41.27A17.18 17.18 0 0 0 96.08 91.6z" class="cls-2"/></svg>