<svg xmlns="http://www.w3.org/2000/svg" viewBox="0 0 224.05 45.53" width="250" height="50"><path fill="#fff" stroke="#008bb0" stroke-miterlimit="3.8636" stroke-width=".41" d="M19.52 45.3C.35 35.21.2 21.54.2.21h38.64c0 21.34-.06 35-19.32 45.09z"/><path fill="#008bb0" d="M37.53 1.73v-.11H1.46v1.85c0 8 0 15.56 2.23 22.49A28 28 0 0 0 9 35.69a33.51 33.51 0 0 0 10.45 8h.1a33.42 33.42 0 0 0 10.39-8 28 28 0 0 0 5.33-9.75c2.24-7 2.23-14.6 2.23-22.68z"/><g fill="#fff"><path d="M18.54 5.76h2.37c0-.76-.64-1.34-1.2-1.81a2.57 2.57 0 0 0-1.17 1.81zM14.48 10.55V8.22h10.54v2.4L19.7 8.93l-5.22 1.62z"/><path d="M11.48 12.27h16.5L19.7 9.71l-8.22 2.56zM15.7 7.88h8.07A4.13 4.13 0 0 0 21 6.1h-2.56a4.29 4.29 0 0 0-2.74 1.78z"/></g><g fill="#fff"><path d="M13.15 27.51c.11-.06.1.11.1.26V31c0 .24-.18.32-.41.33h-.51v.27H15.05v-.3h-.44c-.23 0-.41-.09-.41-.33v-2.33c0-.86.05-1.48.07-1.82l-.09-.07a20 20 0 0 1-2.14.72 1.09 1.09 0 0 0 .1.5zM17.65 29.58c.41.18.75.4.75.9a.79.79 0 0 1-.77.82.91.91 0 0 1-.91-1 1.16 1.16 0 0 1 .49-1zm0-1c-.34-.15-.69-.34-.69-.77a.62.62 0 0 1 .69-.64.72.72 0 0 1 .74.78 1 1 0 0 1-.43.76zm.09-1.78c-1 0-1.52.54-1.52 1.33a1.18 1.18 0 0 0 .72 1.1 1.34 1.34 0 0 0-.84 1.17 1.28 1.28 0 0 0 1.44 1.25 1.58 1.58 0 0 0 1.66-1.58 1.28 1.28 0 0 0-.89-1.24 1.18 1.18 0 0 0 .68-1c.01-.69-.61-1.01-1.27-1.01zM21.24 27.51c.11-.06.11.11.11.26V31c0 .24-.18.32-.41.33h-.52v.27H23.14v-.3h-.44c-.23 0-.41-.09-.41-.33v-2.33c0-.86.05-1.48.07-1.82l-.08-.07a20.09 20.09 0 0 1-2.15.72 1.43 1.43 0 0 0 .1.5zM25 27.51c.11-.06.1.11.1.26V31c0 .24-.17.32-.4.33h-.52v.27H26.9v-.3h-.44c-.23 0-.41-.09-.41-.33v-2.33c0-.86.05-1.48.07-1.82l-.08-.07a20.09 20.09 0 0 1-2.15.72 1.23 1.23 0 0 0 .1.5z"/></g><path fill="#fff" d="M23.89 19.64H21v.64H21.67c.41 0 .53.09.53.31V22a3.76 3.76 0 0 1-1.29.24c-2.11 0-2.86-1.86-2.86-3.45a2.61 2.61 0 0 1 2.69-2.93 3.24 3.24 0 0 1 2.21.7l.06.9v.09h.6V17.34a11.84 11.84 0 0 1 .23-1.53l-.06-.12a7.76 7.76 0 0 0-3.1-.69c-2.23 0-4.48 1.2-4.48 3.88A3.94 3.94 0 0 0 17.46 22a4.71 4.71 0 0 0 3.17 1 8.92 8.92 0 0 0 3.24-.66h.06v-1.85c0-.18.09-.22.49-.3h.08v-.55h-.61zm-8.81-4.44h-1.94v.06l-.14.34c-.12.29-.25.59-.38.88l-1.92 4L9 17l-.17-.36c-.22-.47-.5-1.05-.65-1.4v-.06H5.37v.59h.49c.3 0 .35.08.38.14a3 3 0 0 1 .06.84v4.48a3 3 0 0 1-.06.84c0 .06-.08.11-.37.14h-.5v.59h2.7v-.59h-.48c-.29 0-.34-.08-.37-.14a2.86 2.86 0 0 1-.07-.84v-4.12L9.48 22l.07.14a8.2 8.2 0 0 1 .32.76v.06h.5v-.06q.22-.55.66-1.44l2.08-4.33v4.15a2.86 2.86 0 0 1-.07.84c0 .05-.14.09-.37.11h-.49v.63h3.6v-.63h-.5c-.22 0-.34-.06-.37-.11a2.86 2.86 0 0 1-.07-.84v-4.49A2.86 2.86 0 0 1 15 16c0-.06.08-.11.38-.14h.49v-.59h-.75zm17.7.75s.15-.09.38-.1h.5v-.63H30v.63h.5c.23 0 .35.05.37.1a2.55 2.55 0 0 1 .07.84v1.65h-3.2v-1.65a2.55 2.55 0 0 1 .07-.84s.14-.09.37-.1h.5v-.63H25v.63h.5c.23 0 .35.05.38.1a2.86 2.86 0 0 1 .07.84v4.48a2.86 2.86 0 0 1-.07.84c0 .06-.15.09-.38.11H25v.62h3.64v-.62h-.5c-.23 0-.35 0-.37-.1a2.65 2.65 0 0 1-.07-.85v-2H31v2a2.65 2.65 0 0 1-.07.85c0 .05-.14.08-.37.1H30v.62h3.64v-.62h-.5c-.23 0-.35 0-.38-.1a3 3 0 0 1-.07-.85v-4.48a2.86 2.86 0 0 1 .09-.79z"/><path fill="#41535d" d="M57.72 29.92a1.61 1.61 0 0 1-.09.7c-.1.31-1.08.6-2.39.6-3.53 0-5.51-2.45-5.51-5.86 0-3 1.69-5.18 4.94-5.18a7.35 7.35 0 0 1 2.4.31c.8.29 1.42.57 1.42 1.37v.91H59a10.46 10.46 0 0 1 .34-2.6 13.21 13.21 0 0 0-4.24-.71c-4.12 0-7.22 2.43-7.22 6.2 0 4.29 3.08 6.27 6.89 6.27a19.07 19.07 0 0 0 4.5-.87v-2.87c0-.5 0-.57.19-.64l.49-.17-.04-.38H55.72v.51l1.42.12c.44 0 .58.2.58.6zM62.91 29.54a3 3 0 0 1-.15 1.28c-.1.17-.31.22-.72.26l-.62.05v.51c.62 0 1.18-.05 1.83-.05 1.06 0 2.42 0 3.73.05s2.62 0 3.37-.05a14.76 14.76 0 0 1 .28-2.8H70c-.12 1-.34 1.78-.6 1.91a15.66 15.66 0 0 1-3.46.23 5.88 5.88 0 0 1-1.43-.14V26c.53-.05 1.16-.05 2-.05a4.4 4.4 0 0 1 1.81.2c.09.05.12.21.14.43l.09 1h.51v-1.9-2h-.51l-.09.89c0 .22 0 .37-.14.44a4.69 4.69 0 0 1-1.81.19c-.82 0-1.44 0-2-.05v-4.54a5.88 5.88 0 0 1 1.49-.14 10.68 10.68 0 0 1 3.36.36c.13.05.15.24.15.46v1.12h.6a11.28 11.28 0 0 1 .27-2.6h-9.09v.51l.82.05c.41 0 .62.09.72.26a3 3 0 0 1 .15 1.28zM73.8 29.54a3 3 0 0 1-.16 1.28c-.1.17-.31.22-.72.26l-.75.05v.51c.69 0 1.37-.05 2-.05s1.29 0 2 .05v-.51l-.76-.05c-.41 0-.61-.09-.71-.26a3 3 0 0 1-.16-1.28v-7.89l8 10 1.54.27V21.86a3 3 0 0 1 .16-1.28c.1-.17.3-.23.71-.26l.76-.05v-.51H81.65v.51l.75.05c.41 0 .62.09.72.26a3 3 0 0 1 .15 1.28v8h-.05l-8.07-10.1h-2.93v.51l.75.05c.41 0 .62.09.72.26a3 3 0 0 1 .16 1.28zM88.79 29.54a3 3 0 0 1-.16 1.28c-.1.17-.31.22-.72.26l-.61.05v.51c.61 0 1.18-.05 1.83-.05 1.06 0 2.41 0 3.73.05s2.61 0 3.37-.05a14.78 14.78 0 0 1 .27-2.8h-.6c-.12 1-.34 1.78-.6 1.91a15.61 15.61 0 0 1-3.45.23 6 6 0 0 1-1.44-.14V26c.53-.05 1.16-.05 2-.05a4.47 4.47 0 0 1 1.82.2c.08.05.12.21.13.43l.09 1h.51v-1.9-2h-.51l-.09.89a.64.64 0 0 1-.13.44 4.76 4.76 0 0 1-1.82.19c-.82 0-1.43 0-2-.05v-4.54a6 6 0 0 1 1.44-.14 10.65 10.65 0 0 1 3.35.36c.14.05.15.24.15.46v1.12H96a11.27 11.27 0 0 1 .28-2.6h-9.1v.51l.82.05c.41 0 .62.09.72.26a3 3 0 0 1 .16 1.28zM101.55 20.61a6.65 6.65 0 0 1 1.74-.2c1.33 0 2.7.51 2.7 2.36a2.52 2.52 0 0 1-2.22 2.39 6.47 6.47 0 0 1-1.51.07l-.1.2c.29.36.62.69.89 1.06l3.15 4.23c.22.31.48.6.7.92.39 0 .77-.05 1.16-.05s.79 0 1.23.05v-.51a1.3 1.3 0 0 1-1-.44l-3.88-5.07c1.66-.32 3.33-1.43 3.33-3.3 0-1.23-.71-2.62-3.45-2.56h-5.91v.51l.7.05c.41 0 .61.09.72.26a3 3 0 0 1 .15 1.28v7.68a3 3 0 0 1-.15 1.28c-.11.17-.31.24-.72.26l-.82.05v.51c.89 0 1.69-.05 2.53-.05s1.59 0 2.48.05v-.51l-.82-.05c-.41 0-.62-.09-.72-.26a3 3 0 0 1-.15-1.28z"/><path fill="#41535d" d="M115.88 19.62h-.55c-.46 1.23-1 2.5-1.58 3.69l-3 6.93a1.23 1.23 0 0 1-.92.84l-.64.05v.51c.65 0 1.3-.05 2-.05.5 0 1.15 0 2 .05v-.51l-.64-.05c-.53 0-.82-.12-.82-.48a10.36 10.36 0 0 1 .6-1.78l.48-1.14h4.93l.78 2a3.73 3.73 0 0 1 .36 1.1c0 .2-.34.32-.7.34l-.8.05v.51c.92 0 1.67-.05 2.27-.05.77 0 1.53 0 2.28.05v-.51l-.58-.05c-.31 0-.5-.26-.69-.58s-.39-.82-.54-1.17zM113 27l2.17-5.1 2.16 5.1zM126.09 21.86a3 3 0 0 1 .15-1.28c.1-.17.31-.24.72-.26l.82-.05v-.51h-5.01v.51l.82.05c.41 0 .62.09.72.26a3 3 0 0 1 .15 1.28V30a1.08 1.08 0 0 1-.43 1l-.53.27v.39c.45 0 .88-.05 1.46-.05 1.06 0 2.19 0 3.73.05 1.26 0 2.61 0 3.37-.05.13-.85.25-2 .36-2.94h-.55l-.21.86a3 3 0 0 1-.36 1.09c-.29.27-2.37.33-3.78.33a5.88 5.88 0 0 1-1.43-.14zM149.17 21.86a3 3 0 0 1 .16-1.28c.1-.17.3-.24.72-.26l.82-.05v-.51h-5.02v.51l.83.05c.41 0 .61.09.71.26a3 3 0 0 1 .16 1.28v3h-6.84v-3a3 3 0 0 1 .15-1.28c.1-.17.31-.24.72-.26l.82-.05v-.51h-5.01v.51l.82.05c.41 0 .61.09.72.26a3 3 0 0 1 .15 1.28v7.68a3 3 0 0 1-.15 1.28c-.11.17-.31.24-.72.26l-.82.05v.51c.89 0 1.69-.05 2.53-.05s1.59 0 2.48.05v-.51l-.82-.05c-.41 0-.62-.09-.72-.26a3 3 0 0 1-.15-1.28v-3.81h6.84v3.81a3 3 0 0 1-.16 1.28c-.1.17-.3.24-.71.26l-.83.05v.51c.89 0 1.7-.05 2.54-.05s1.59 0 2.48.05v-.51l-.82-.05c-.42 0-.62-.09-.72-.26a3 3 0 0 1-.16-1.28zM157.7 31.93a6.55 6.55 0 0 0 6.62-6.62c0-3.79-2.6-5.85-6.26-5.85a6.06 6.06 0 0 0-6.44 6.25 5.85 5.85 0 0 0 6.08 6.22zm.08-11.75c3.18 0 4.71 2.28 4.71 5.67 0 3.14-1.39 5.37-4.25 5.37-3.38 0-4.79-3.15-4.79-6.14 0-2.81 1.36-4.9 4.33-4.9zM173.15 22.6a12.17 12.17 0 0 1 .24-2.42 8.07 8.07 0 0 0-3.1-.72c-2 0-4.37 1.22-4.37 3.87 0 1.78 1.05 2.62 3.74 2.93 1.75.2 3 .66 3 2.29a2.8 2.8 0 0 1-3.06 2.63c-1.35 0-2.7-.65-2.79-1.37l-.14-1.14h-.54a16.78 16.78 0 0 1-.12 2.61 7.21 7.21 0 0 0 2.92.65c2.55 0 5.17-1.4 5.17-4.32 0-1.95-1.52-2.55-3.94-2.81-2.13-.24-2.82-1-2.82-2.12a2.44 2.44 0 0 1 2.53-2.5 3.82 3.82 0 0 1 1.87.41c.63.4.7.57.75 1l.1 1zM179 20.61a6.65 6.65 0 0 1 1.74-.2c1.7 0 2.77.77 2.77 2.54a2.45 2.45 0 0 1-2.46 2.55 3.69 3.69 0 0 1-1.13-.17l.17.62a5.21 5.21 0 0 0 1 .1 3.84 3.84 0 0 0 4.1-3.68c0-1.93-1.88-2.65-3.54-2.61h-5.98v.51l.77.05c.42 0 .61.12.73.29a2.86 2.86 0 0 1 .17 1.25v7.68a3 3 0 0 1-.15 1.28c-.1.17-.31.24-.72.26l-.82.05v.51c.89 0 1.69-.05 2.53-.05s1.59 0 2.48.05v-.51l-.82-.05c-.41 0-.62-.09-.72-.26a3 3 0 0 1-.15-1.28zM189.59 21.86a3 3 0 0 1 .16-1.28c.1-.17.31-.24.72-.26l.82-.05v-.51h-5.02v.51l.83.05c.41 0 .61.09.71.26a3 3 0 0 1 .16 1.28v7.68a3 3 0 0 1-.16 1.28c-.1.17-.3.24-.71.26l-.83.05v.51c.89 0 1.7-.05 2.54-.05s1.59 0 2.48.05v-.51l-.82-.05c-.41 0-.62-.09-.72-.26a3 3 0 0 1-.16-1.28zM196.47 29.54a3 3 0 0 1-.15 1.28c-.11.17-.31.24-.72.26l-.82.05v.51c.89 0 1.69-.05 2.53-.05s1.59 0 2.48.05v-.51l-.82-.05c-.41 0-.62-.09-.72-.26a3 3 0 0 1-.15-1.28V22.3c0-.65 0-1.19.06-1.71h2.65c.52 0 .65.16.69.57l.07 1.35h.53c0-.92 0-1.86.12-2.75h-9.91c.08.89.12 1.83.12 2.75h.57l.07-1.35c0-.41.17-.57.68-.57h2.65c0 .52.07 1.06.07 1.71zM208 19.62h-.55c-.46 1.23-1 2.5-1.57 3.69l-3 6.93a1.24 1.24 0 0 1-.93.84l-.63.05v.51c.65 0 1.3-.05 2-.05.49 0 1.14 0 2 .05v-.51l-.63-.05c-.53 0-.82-.12-.82-.48a9.57 9.57 0 0 1 .6-1.78l.48-1.14h4.92l.79 2a4.05 4.05 0 0 1 .36 1.1c0 .2-.34.32-.7.34l-.81.05v.51c.93 0 1.68-.05 2.28-.05.77 0 1.52 0 2.27.05v-.51l-.58-.05c-.3 0-.49-.26-.68-.58s-.39-.82-.55-1.17zM205.08 27l2.17-5.1 2.16 5.1zM217.72 21.86a3 3 0 0 1 .16-1.28c.1-.17.3-.24.72-.26l.82-.05v-.51h-5.02v.51l.82.05c.42 0 .62.09.72.26a3 3 0 0 1 .16 1.28V30a1.11 1.11 0 0 1-.43 1l-.53.27v.39c.45 0 .87-.05 1.45-.05 1.06 0 2.19 0 3.73.05 1.27 0 2.62 0 3.37-.05.14-.85.26-2 .36-2.94h-.55l-.2.86a3.16 3.16 0 0 1-.36 1.09c-.29.27-2.38.33-3.78.33a6 6 0 0 1-1.44-.14zM61.67 3.85a3 3 0 0 1 .15-1.28c.1-.17.31-.22.72-.25l.72-.06v-.51c-.5 0-1 .05-1.59.05s-1.08 0-1.63-.05l-4.48 9.51-4.51-9.51c-.53 0-1.08.05-1.63.05s-1.09 0-1.62-.05v.51l.75.06c.41 0 .61.08.72.25a3 3 0 0 1 .15 1.28v7.68a3.06 3.06 0 0 1-.15 1.29c-.11.17-.31.22-.72.25l-.75.06v.51c.68 0 1.36-.05 2-.05s1.3 0 2 .05v-.51l-.75-.06c-.41 0-.62-.08-.72-.25a3.06 3.06 0 0 1-.15-1.29V3.77l4.74 10h.34c.31-.72.6-1.47.93-2.17l3-6.47c.22-.46.46-.94.72-1.4v7.76a3.06 3.06 0 0 1-.15 1.29c-.1.17-.31.22-.72.25l-.58.06v.51c.65 0 1.45-.05 2.29-.05s1.59 0 2.48.05v-.51l-.82-.06c-.41 0-.62-.08-.72-.25a3.06 3.06 0 0 1-.15-1.29zM70.09 1.61h-.55c-.46 1.24-1.05 2.5-1.58 3.7l-3 6.93a1.21 1.21 0 0 1-.92.83l-.64.06v.51c.65 0 1.3-.05 2-.05.5 0 1.15 0 2 .05v-.51l-.64-.06c-.53-.05-.82-.12-.82-.47a10.09 10.09 0 0 1 .6-1.78l.48-1.15h4.93l.78 2a3.68 3.68 0 0 1 .27 1.06c0 .21-.34.33-.7.34l-.8.06v.51c.92 0 1.67-.05 2.27-.05.77 0 1.53 0 2.28.05v-.51l-.58-.06c-.31 0-.5-.25-.69-.58s-.39-.82-.55-1.16zM67.21 9l2.17-5.1L71.54 9zM83.83 4.59a12.07 12.07 0 0 1 .24-2.41A7.89 7.89 0 0 0 81 1.46c-2 0-4.37 1.21-4.37 3.87 0 1.77 1.06 2.61 3.74 2.92 1.75.21 3 .67 3 2.29a2.8 2.8 0 0 1-3.06 2.64c-1.35 0-2.7-.65-2.79-1.37l-.13-1.15h-.55a14.7 14.7 0 0 1-.12 2.62 7.38 7.38 0 0 0 2.92.65c2.55 0 5.17-1.4 5.17-4.33 0-1.95-1.52-2.55-3.94-2.8C78.72 6.56 78 5.84 78 4.68a2.44 2.44 0 0 1 2.53-2.5 3.82 3.82 0 0 1 1.87.41c.63.39.7.56.75 1l.1 1zM93.56 4.59a12.07 12.07 0 0 1 .24-2.41 7.89 7.89 0 0 0-3.1-.72c-2 0-4.38 1.21-4.38 3.87 0 1.77 1.06 2.61 3.75 2.92 1.74.21 3 .67 3 2.29A2.8 2.8 0 0 1 90 13.18c-1.35 0-2.7-.65-2.79-1.37l-.14-1.15h-.54a16.85 16.85 0 0 1-.12 2.62 7.34 7.34 0 0 0 2.92.65c2.55 0 5.17-1.4 5.17-4.33 0-1.95-1.53-2.55-3.94-2.8-2.14-.24-2.82-1-2.82-2.12a2.44 2.44 0 0 1 2.53-2.5 3.82 3.82 0 0 1 1.87.41c.63.39.7.56.75 1l.1 1zM101.31 1.61h-.54c-.46 1.24-1 2.5-1.58 3.7l-3 6.93a1.21 1.21 0 0 1-.93.83l-.63.06v.51c.65 0 1.3-.05 2-.05.5 0 1.14 0 2 .05v-.51l-.64-.06c-.53-.05-.82-.12-.82-.47a10.09 10.09 0 0 1 .6-1.78l.48-1.15h4.93l.78 2a4 4 0 0 1 .36 1.09c0 .21-.34.33-.7.34l-.8.06v.51c.92 0 1.67-.05 2.27-.05.77 0 1.52 0 2.28.05v-.51l-.59-.06c-.3 0-.49-.25-.68-.58s-.39-.82-.55-1.16zM98.44 9l2.17-5.1 2.16 5.1zM118.33 12.15l-.15-.17a6.52 6.52 0 0 1-3.47 1 5.27 5.27 0 0 1-5.63-5.58c0-2.91 1.69-5.25 4.91-5.25a6.21 6.21 0 0 1 1.91.29c.79.29 1.48.58 1.48 1.06v1.26h.53a12.84 12.84 0 0 1 .32-2.6 12.63 12.63 0 0 0-4-.7 7.69 7.69 0 0 0-4.94 1.64 5.72 5.72 0 0 0-2.09 4.6c0 3.89 2.77 6.23 6.88 6.23a8.48 8.48 0 0 0 3.72-.92zM131.42 3.85a3 3 0 0 1 .15-1.28c.11-.17.31-.24.72-.25l.82-.06v-.51c-.89 0-1.69.05-2.48.05s-1.64 0-2.53-.05v.51l.82.06c.41 0 .62.08.72.25a3 3 0 0 1 .16 1.28V6.9h-6.84V3.85a3 3 0 0 1 .16-1.28c.1-.17.31-.24.72-.25l.82-.06v-.51c-.89 0-1.7.05-2.48.05s-1.65 0-2.53-.05v.51l.82.06c.41 0 .61.08.71.25a3 3 0 0 1 .16 1.28v7.68a3 3 0 0 1-.16 1.29c-.1.17-.3.24-.71.25l-.82.06v.51c.88 0 1.69-.05 2.53-.05s1.59 0 2.48.05v-.51l-.82-.06c-.41 0-.62-.08-.72-.25a3 3 0 0 1-.16-1.29V7.72h6.84v3.81a3 3 0 0 1-.16 1.29c-.1.17-.31.24-.72.25l-.82.06v.51c.89 0 1.7-.05 2.53-.05s1.59 0 2.48.05v-.51l-.82-.06c-.41 0-.61-.08-.72-.25a3.06 3.06 0 0 1-.15-1.29zM136 9.93c0 3.13 1.71 4 4.62 4 3.45 0 4.84-1.47 4.84-5.13v-5a3 3 0 0 1 .15-1.28c.1-.17.31-.22.72-.25l.75-.06v-.46c-.75 0-1.37.05-2.05.05s-1.3 0-2-.05v.51l.75.06c.41 0 .62.08.72.25a3 3 0 0 1 .15 1.28v5.48c0 2.84-1.67 3.54-3.52 3.54-2.26 0-3.53-.7-3.53-3.13V3.85a3 3 0 0 1 .16-1.28c.1-.17.31-.24.72-.25l.82-.06v-.51c-.89 0-1.7.05-2.48.05s-1.64 0-2.53-.05v.51l.82.06c.41 0 .61.08.72.25a3.21 3.21 0 0 1 .17 1.28zM155.45 4.59a12.07 12.07 0 0 1 .24-2.41 7.83 7.83 0 0 0-3.09-.72c-2 0-4.38 1.21-4.38 3.87 0 1.77 1.06 2.61 3.75 2.92 1.74.21 3 .67 3 2.29a2.8 2.8 0 0 1-3.06 2.64c-1.35 0-2.7-.65-2.78-1.37l-.13-1.15h-.55a14.7 14.7 0 0 1-.12 2.62 7.44 7.44 0 0 0 2.93.65c2.55 0 5.16-1.4 5.16-4.33 0-1.95-1.52-2.55-3.93-2.8-2.14-.24-2.82-1-2.82-2.12a2.43 2.43 0 0 1 2.53-2.5 3.81 3.81 0 0 1 1.86.41c.63.39.7.56.75 1l.11 1zM159.39 11.53a3 3 0 0 1-.16 1.29c-.1.17-.31.22-.72.25l-.61.06v.51c.61 0 1.18-.05 1.83-.05 1.06 0 2.41 0 3.73.05s2.61 0 3.37-.05a14.8 14.8 0 0 1 .27-2.81h-.6c-.12 1-.34 1.78-.6 1.92a15.75 15.75 0 0 1-3.45.22 6 6 0 0 1-1.44-.14V8h2a4.18 4.18 0 0 1 1.81.21c.08 0 .12.2.14.43l.08 1h.51V7.75v-2H165l-.08.89a.72.72 0 0 1-.14.45 4.83 4.83 0 0 1-1.81.18h-2V2.61a6 6 0 0 1 1.44-.14 10.65 10.65 0 0 1 3.35.36c.14 0 .15.24.15.46V4.4h.6a11.33 11.33 0 0 1 .28-2.6c-.67 0-1.44-.05-2.21-.05-1 0-2.55.05-4 .05-1 0-2 0-2.89-.05v.51l.82.06c.41 0 .62.08.72.25a3 3 0 0 1 .16 1.28zM172.44 11.53a3.06 3.06 0 0 1-.15 1.29c-.11.17-.31.24-.72.25l-.82.06v.51c.89 0 1.69-.05 2.53-.05s1.59 0 2.48.05v-.51l-.82-.06c-.41 0-.62-.08-.72-.25a3 3 0 0 1-.16-1.29V4.3c0-.65 0-1.2.07-1.71h2.65c.52 0 .65.15.69.56l.07 1.35h.53c0-.92 0-1.86.12-2.75-1.23 0-2.47.05-3.7.05H172c-1.23 0-2.46-.05-3.69-.05.08.89.12 1.83.12 2.75h.57V3.15c0-.41.17-.56.68-.56h2.65c0 .51.07 1.06.07 1.71zM183.34 11.53a3 3 0 0 1-.16 1.29c-.1.17-.3.24-.71.25l-.83.06v.51c.89 0 1.7-.05 2.54-.05s1.59 0 2.48.05v-.51l-.82-.06c-.41 0-.62-.08-.72-.25a3 3 0 0 1-.16-1.29V4.3c0-.65 0-1.2.07-1.71h2.65c.52 0 .65.15.69.56l.06 1.35h.57c0-.92 0-1.86.12-2.75-1.24 0-2.47.05-3.7.05h-2.48c-1.23 0-2.46-.05-3.69-.05.08.89.12 1.83.12 2.75h.53l.06-1.35c0-.41.18-.56.69-.56h2.65c0 .51.07 1.06.07 1.71zM197.45 4.59a12.07 12.07 0 0 1 .24-2.41 7.88 7.88 0 0 0-3.09-.72c-2.06 0-4.38 1.21-4.38 3.87 0 1.77 1.06 2.61 3.74 2.92 1.75.21 3 .67 3 2.29a2.8 2.8 0 0 1-3.06 2.64c-1.35 0-2.7-.65-2.79-1.37l-.11-1.15h-.55a14.7 14.7 0 0 1-.12 2.62 7.39 7.39 0 0 0 2.93.65c2.54 0 5.16-1.4 5.16-4.33 0-1.95-1.52-2.55-3.93-2.8-2.14-.24-2.83-1-2.83-2.12a2.44 2.44 0 0 1 2.54-2.5 3.81 3.81 0 0 1 1.86.41c.63.39.7.56.75 1l.11 1z"/></svg>